# xmcd
#
# Track frame offsets:
#	182
#	18232
#	58632
#
# Disc length: 1031 seconds
# Revision: 0
# Processed by: cddbd v1.5.2PL0 Copyright (c) Steve Scherf et al.
# Submitted via: dBpowerAMP V12.0
#
DISCID=1b040503
DTITLE=Milli Vanilli - All Or Nothing [Single]
DYEAR=1990
DGENRE=House
TTITLE0=All Or Nothing [The U.S. Remix]
TTITLE1=All Or Nothing [The U.S. Mega Remix]
TTITLE2=Dreams To Remember [Radio Remix]
EXTD=
EXTT0=
EXTT1=
EXTT2=
PLAYORDER=
